<svg xmlns="http://www.w3.org/2000/svg" viewBox="0 0 25 13.2"><path d="M12.3 1c5.5 0 9.9 4 11.4 5.6-1.5 1.6-5.9 5.6-11.4 5.6s-9.5-4-10.9-5.6C2.8 5.1 7.1 1 12.3 1m0-1C5.4 0 0 6.6 0 6.6s4.9 6.6 12.3 6.6S25 6.6 25 6.6 19.6 0 12.3 0"/><path d="M12.5 1.1c3 0 5.5 2.5 5.5 5.5s-2.5 5.5-5.5 5.5S7 9.7 7 6.6s2.5-5.5 5.5-5.5m0-1C8.9.1 6 3 6 6.6s2.9 6.5 6.5 6.5S19 10.2 19 6.6 16.1.1 12.5.1"/><path d="M12.5 4.9c1 0 1.8.8 1.8 1.8s-.8 1.8-1.8 1.8-1.8-.8-1.8-1.8.8-1.8 1.8-1.8m0-1c-1.5 0-2.8 1.2-2.8 2.8s1.2 2.8 2.8 2.8 2.8-1.2 2.8-2.8-1.3-2.8-2.8-2.8"/></svg>