<svg xmlns="http://www.w3.org/2000/svg" viewBox="0 0 157.5 153.5">
	<style type="text/css">
		.st0{fill:#101820;}
		.st1{fill:#97999B;}
	</style>
	<g>
		<path class="st0" d="M22.2,121.9c1.3-1.9,2.4-3.7,3.5-5.5c1.1-1.8,2.2-3.7,3.4-5.8c0.6,0.1,1.1,0.2,1.5,0.2c0.4,0,0.9-0.1,1.5-0.2c-1.6,2.2-3.1,4.3-4.6,6.4c-1.5,2.1-3,4.2-4.4,6.5c1.6,2.7,3.1,5.3,4.7,7.8c1.6,2.5,3.2,5.1,4.8,7.6c-0.4-0.1-0.8-0.1-1.2-0.1c-0.4,0-0.8,0-1.2,0c-0.4,0-0.8,0-1.2,0c-0.4,0-0.8,0-1.2,0.1c-1.1-2-2.2-4-3.3-6.1c-1.1-2.1-2.3-4.1-3.7-6.2c-1.4,2.1-2.7,4.2-3.9,6.2c-1.2,2.1-2.4,4.1-3.5,6.1c-0.3-0.1-0.5-0.1-0.8-0.1c-0.3,0-0.5,0-0.7,0c-0.2,0-0.5,0-0.7,0c-0.3,0-0.5,0-0.8,0.1c1.6-2.3,3.2-4.6,4.8-6.9c1.6-2.3,3.1-4.7,4.7-7.1c-1.4-2.4-2.9-4.8-4.3-7.1c-1.4-2.3-2.9-4.7-4.4-7.1c0.4,0.1,0.8,0.1,1.1,0.1c0.4,0,0.7,0.1,1.1,0.1c0.4,0,0.8,0,1.1-0.1c0.4,0,0.7-0.1,1.1-0.1c0.9,1.8,1.9,3.7,2.9,5.4C19.8,117.8,20.9,119.8,22.2,121.9z"/>
		<path class="st0" d="M71.9,137.9c-0.5,0.3-1.2,0.5-1.9,0.7c-0.8,0.2-1.6,0.4-2.5,0.6c-0.9,0.2-1.9,0.2-2.9,0.2c-2.2,0-4.2-0.3-6-0.9c-1.8-0.6-3.4-1.6-4.8-2.8c-1.3-1.3-2.4-2.8-3.1-4.6c-0.8-1.8-1.1-3.9-1.1-6.2c0-2.3,0.4-4.4,1.1-6.2c0.8-1.8,1.8-3.4,3.2-4.6c1.4-1.3,3-2.2,4.9-2.9c1.9-0.7,4-1,6.3-1c1.8,0,3.5,0.2,5,0.6c1.5,0.4,2.8,0.8,4,1.3c-0.2,0.4-0.4,0.9-0.5,1.6c-0.1,0.7-0.2,1.2-0.3,1.6l-0.2,0.1c-0.3-0.3-0.7-0.7-1.2-1.1c-0.5-0.4-1.1-0.8-1.7-1.2c-0.7-0.4-1.4-0.7-2.2-1c-0.8-0.3-1.7-0.4-2.7-0.4c-1.6,0-3.1,0.3-4.5,0.8c-1.4,0.5-2.6,1.3-3.6,2.4c-1,1.1-1.8,2.5-2.4,4.1c-0.6,1.7-0.9,3.6-0.9,5.9c0,2.3,0.3,4.2,0.9,5.9c0.6,1.7,1.4,3,2.4,4.1c1,1.1,2.2,1.9,3.6,2.4c1.4,0.5,2.9,0.8,4.5,0.8c1,0,1.9-0.1,2.7-0.4c0.8-0.2,1.6-0.5,2.3-0.9c0.7-0.3,1.3-0.7,1.9-1.1c0.6-0.4,1-0.7,1.4-1l0.2,0.2l-0.4,2.4C72.8,137.4,72.4,137.6,71.9,137.9z"/>
		<path class="st0" d="M80.2,116.6c0-1.1,0-2.2-0.1-3.2c0-1.1-0.1-2.1-0.1-3.1c0-1-0.1-1.8-0.1-2.5c0.8,0.1,1.4,0.2,1.9,0.2c0.5,0,1.1-0.1,1.9-0.2c-0.1,0.7-0.1,1.5-0.1,2.5c0,1-0.1,2-0.1,3.1c0,1.1,0,2.2-0.1,3.2c0,1.1,0,2.1,0,3v7.4c0,0.9,0,1.9,0,3c0,1.1,0,2.2,0.1,3.2c0,1.1,0.1,2.1,0.1,3c0,1,0.1,1.8,0.1,2.4c-0.6-0.1-1.2-0.1-1.9-0.1c-0.6,0-1.2,0-1.9,0.1c0.1-0.6,0.1-1.4,0.1-2.4c0-1,0.1-2,0.1-3c0-1.1,0-2.2,0.1-3.2c0-1.1,0-2.1,0-3v-7.4C80.2,118.7,80.2,117.7,80.2,116.6z"/>
		<path class="st0" d="M91.6,114.2c0.6,0,1.1-0.2,1.5-0.6c0.4-0.4,0.6-0.9,0.6-1.5c0-0.6-0.2-1.1-0.6-1.5c-0.4-0.4-0.9-0.6-1.5-0.6c-0.6,0-1.1,0.2-1.5,0.6c-0.4,0.4-0.6,0.9-0.6,1.5c0,0.6,0.2,1.1,0.6,1.5C90.5,114,91,114.2,91.6,114.2z"/>
		<path class="st0" d="M93.2,123.1c0-1.4,0.1-2.6,0.3-3.8c-0.8,0.1-1.4,0.2-1.9,0.2c-0.5,0-1.1-0.1-1.8-0.2c0.1,1.2,0.2,2.4,0.3,3.8c0,1.4,0.1,2.7,0.1,3.9v4.3c0,1.2,0,2.5-0.1,3.9c0,1.4-0.1,2.6-0.3,3.7c0.6-0.1,1.2-0.1,1.8-0.1s1.2,0,1.9,0.1c-0.1-1.1-0.2-2.3-0.3-3.7c0-1.4-0.1-2.7-0.1-3.9V127C93.1,125.8,93.2,124.5,93.2,123.1z"/>
		<path class="st0" d="M112,122.6c-0.8-1.1-1.9-1.6-3.3-1.6c-1.9,0-3.3,0.6-4.2,1.8c-0.9,1.2-1.3,2.8-1.3,5v3.5c0,1.2,0,2.5,0.1,3.9c0,1.4,0.1,2.6,0.3,3.7c-0.6-0.1-1.2-0.1-1.9-0.1c-0.6,0-1.2,0-1.9,0.1c0.1-1.1,0.2-2.3,0.3-3.7c0-1.4,0.1-2.7,0.1-3.9V127c0-1.2,0-2.5-0.1-3.9c0-1.4-0.1-2.6-0.3-3.8c0.8,0.1,1.4,0.2,1.9,0.2c0.2,0,0.5,0,0.7-0.1c0.3,0,0.6-0.1,0.9-0.1c-0.1,1.1-0.1,2.2-0.1,3.3h0.1c0.8-1.2,1.7-2.1,2.8-2.7c1.1-0.6,2.3-1,3.8-1c0.8,0,1.5,0.1,2.3,0.3c0.8,0.2,1.5,0.6,2.1,1.1c0.6,0.5,1.1,1.3,1.5,2.2c0.4,0.9,0.6,2.1,0.6,3.5c0,1.2,0,2.4-0.1,3.6c-0.1,1.2-0.1,2.6-0.1,4v2.7c0,0.4,0,0.9,0,1.3c0,0.4,0,0.8,0.1,1.2c-0.5-0.1-1.1-0.1-1.7-0.1c-0.6,0-1.1,0-1.7,0.1c0.1-1.4,0.1-2.9,0.2-4.4c0.1-1.5,0.1-3.1,0.1-4.6v-2.5C113.2,125.2,112.8,123.7,112,122.6z"/>
		<path class="st0" d="M121.9,112.1c0-0.6,0.2-1.1,0.6-1.5c0.4-0.4,0.9-0.6,1.5-0.6c0.6,0,1.1,0.2,1.5,0.6c0.4,0.4,0.6,0.9,0.6,1.5c0,0.6-0.2,1.1-0.6,1.5c-0.4,0.4-0.9,0.6-1.5,0.6c-0.6,0-1.1-0.2-1.5-0.6C122.1,113.2,121.9,112.7,121.9,112.1z M122.4,127c0-1.2,0-2.5-0.1-3.9c0-1.4-0.1-2.6-0.3-3.8c0.8,0.1,1.4,0.2,1.9,0.2c0.5,0,1.1-0.1,1.9-0.2c-0.1,1.2-0.2,2.4-0.3,3.8c0,1.4-0.1,2.7-0.1,3.9v4.3c0,1.2,0,2.5,0.1,3.9c0,1.4,0.1,2.6,0.3,3.7c-0.6-0.1-1.2-0.1-1.9-0.1s-1.2,0-1.9,0.1c0.1-1.1,0.2-2.3,0.3-3.7c0-1.4,0.1-2.7,0.1-3.9V127z"/>
		<path class="st0" d="M131.6,129.1c0-1.8,0.3-3.3,0.9-4.6c0.6-1.3,1.4-2.4,2.4-3.2c1-0.8,2.1-1.5,3.4-1.9c1.3-0.4,2.5-0.6,3.9-0.6c1.5,0,2.9,0.2,4.1,0.6c1.2,0.4,2,0.8,2.6,1.3c-0.2,0.4-0.4,0.8-0.5,1.3c-0.2,0.5-0.3,0.9-0.4,1.4h-0.3c-0.2-0.4-0.5-0.7-0.8-1.1s-0.7-0.7-1.2-1c-0.5-0.3-1-0.6-1.5-0.8c-0.5-0.2-1.2-0.3-1.8-0.3c-1.2,0-2.3,0.2-3.2,0.7c-0.9,0.5-1.6,1.1-2.2,1.9c-0.6,0.8-1,1.7-1.2,2.8c-0.3,1.1-0.4,2.3-0.4,3.5c0,2.8,0.6,5,1.8,6.4c1.2,1.4,3,2.2,5.3,2.2c0.5,0,1.1-0.1,1.7-0.2c0.6-0.2,1.1-0.4,1.7-0.6c0.5-0.3,1.1-0.6,1.5-0.9c0.5-0.4,0.9-0.7,1.3-1.2l0.2,0.1c-0.1,0.7-0.2,1.3-0.2,2c-0.8,0.7-1.8,1.2-3.1,1.7c-1.2,0.5-2.5,0.7-3.8,0.7c-1.2,0-2.4-0.2-3.6-0.5c-1.2-0.3-2.3-0.9-3.2-1.7c-1-0.8-1.7-1.9-2.3-3.1C131.9,132.6,131.6,131,131.6,129.1z"/>
		<path class="st0" d="M39.2,125.4c0.6,0,2.3,0,3,0c0.9,0,1.8,0.1,2.5,0.2c0-0.4-0.1-0.8-0.1-1.3c0-0.4,0-0.8,0.1-1.3c-0.7,0.1-1.6,0.2-2.5,0.2c-0.7,0-2.3,0-3,0c-0.6,0-2.3,0-3,0c-0.9,0-1.8-0.1-2.5-0.2c0,0.4,0.1,0.8,0.1,1.3c0,0.4,0,0.8-0.1,1.3c0.7-0.1,1.6-0.2,2.5-0.2C36.9,125.4,38.6,125.4,39.2,125.4z"/>
		<path class="st1" d="M81.9,50.9c-0.4,0.5-1.1,0.9-1.8,0.9c-0.5,0-1-0.2-1.4-0.4c-1.7,4.2-6.4,14.7-15.3,23.6c-8.9,8.9-19.5,13.7-23.7,15.3c0,0,0,0,0,0l39-39c-0.6-0.4-1-1.1-1-1.9c0-0.7,0.3-1.4,0.9-1.8L40,9c4.3,1.7,14.7,6.5,23.5,15.3c8.7,8.7,13.4,18.9,15.2,23.3c0.4-0.3,0.9-0.5,1.5-0.5c0.8,0,1.5,0.4,1.9,1l38.6-38.6c0,0,0,0,0,0c-1.7,4.2-6.4,14.8-15.3,23.7c-8.6,8.6-18.7,13.3-23.2,15.1c0.2,0.3,0.3,0.8,0.3,1.2C82.5,49.9,82.3,50.5,81.9,50.9c4.3,1.7,14.7,6.5,23.4,15.2c8.8,8.8,13.5,19.1,15.3,23.5L81.9,50.9z M96.5,74.9C88,66.4,83.3,56.4,81.4,51.9L119.6,90C115,88.2,105,83.4,96.5,74.9 M93.1,78.4C86,71.3,83,61.6,81.8,55.4c2.5,5.2,6.9,13.3,14,20.3c7,7,15,11.5,20.3,14C109.9,88.5,100.2,85.5,93.1,78.4 M66.9,78.4c-7.1,7.1-16.8,10.1-23,11.3c5.2-2.5,13.3-6.9,20.3-14c7-7,11.5-15,14-20.3C76.9,61.5,74,71.3,66.9,78.4 M54.6,66.1c8.4-8.4,18.2-13.1,22.8-15L39.6,89C41.5,84.3,46.2,74.5,54.6,66.1 M51.2,62.7c7-7,16.6-10,22.8-11.2c-5.2,2.5-13.2,6.9-20.1,13.9C46.9,72.3,42.4,80.2,40,85.5C41.2,79.3,44.1,69.8,51.2,62.7 M39.5,10l38.2,38.2c-4.5-1.9-14.5-6.6-23.1-15.1C46.1,24.5,41.4,14.5,39.5,10 M51.2,36.5c-7.1-7.1-10.1-16.8-11.3-23c2.5,5.2,6.9,13.3,14,20.3c7,7,15,11.5,20.3,14C68,46.5,58.3,43.6,51.2,36.5 M66.9,20.8c7,7,10,16.6,11.2,22.8c-2.5-5.2-6.9-13.2-13.9-20.1c-6.9-6.9-14.9-11.4-20.1-13.9C50.2,10.8,59.8,13.8,66.9,20.8 M96.5,24.2c8.4-8.4,18.2-13.1,22.8-15L81.5,47.1C83.4,42.4,88.1,32.6,96.5,24.2 M93.1,20.8c7-7,16.6-10,22.8-11.2c-5.2,2.5-13.2,6.9-20.1,13.9c-6.9,6.9-11.4,14.9-13.9,20.1C83.1,37.4,86,27.9,93.1,20.8 M108.8,36.5c-7.1,7.1-16.8,10.1-23,11.3c5.2-2.5,13.3-6.9,20.3-14c7-7,11.5-15,14-20.3C118.8,19.7,115.9,29.4,108.8,36.5 M108.8,62.7c7,7,10,16.6,11.2,22.8c-2.5-5.2-6.9-13.2-13.9-20.1C99.2,58.4,91.2,54,86,51.5C92.1,52.7,101.7,55.7,108.8,62.7 M110.2,61.2c-7.1-7.1-16.5-10.2-22.9-11.6c6.4-1.4,15.7-4.5,22.9-11.6C122,26.3,122.9,8.5,122.9,7.7l0.1-1.2l-1.2,0.1c-0.8,0-18.5,0.9-30.2,12.7C84.5,26.4,81.3,35.8,80,42.2c-1.4-6.4-4.5-15.7-11.6-22.9C56.6,7.6,38.9,6.7,38.1,6.6L37,6.6L37,7.7C37,8.5,38,26.3,49.7,38c7.1,7.1,16.5,10.2,22.9,11.6c-6.4,1.4-15.7,4.5-22.9,11.6C38,72.9,37,90.7,37,91.5L37,92.6l1.2-0.1c0.8,0,18.5-0.9,30.2-12.7C75.5,72.8,78.6,63.4,80,57c1.4,6.4,4.5,15.7,11.6,22.9c11.7,11.7,29.5,12.6,30.2,12.7l1.2,0.1l-0.1-1.2C122.9,90.7,122,72.9,110.2,61.2"/>
	</g>
</svg>
