<svg xmlns="http://www.w3.org/2000/svg" viewBox="0 0 144 138">
<style type="text/css">
	.st0{fill:#101820;}
	.st1{fill:#97999B;}
</style>
<g>
	<g>
		<path class="st0" d="M14.1,118c1.3-1.9,2.4-3.7,3.5-5.5c1.1-1.8,2.2-3.7,3.4-5.8c0.6,0.1,1.1,0.2,1.5,0.2
			c0.4,0,0.9-0.1,1.5-0.2c-1.6,2.2-3.1,4.3-4.6,6.4c-1.5,2.1-3,4.2-4.4,6.5c1.6,2.7,3.1,5.3,4.7,7.8c1.6,2.5,3.2,5.1,4.8,7.6
			c-0.4-0.1-0.8-0.1-1.2-0.1c-0.4,0-0.8,0-1.2,0c-0.4,0-0.8,0-1.2,0c-0.4,0-0.8,0-1.2,0.1c-1.1-2-2.2-4-3.3-6.1
			c-1.1-2.1-2.3-4.1-3.7-6.2c-1.4,2.1-2.7,4.2-3.9,6.2c-1.2,2.1-2.4,4.1-3.5,6.1c-0.3-0.1-0.5-0.1-0.8-0.1c-0.3,0-0.5,0-0.7,0
			c-0.2,0-0.5,0-0.7,0c-0.3,0-0.5,0-0.8,0.1c1.6-2.3,3.2-4.6,4.8-6.9c1.6-2.3,3.1-4.7,4.7-7.1c-1.4-2.4-2.9-4.8-4.3-7.1
			c-1.4-2.3-2.9-4.7-4.4-7.1c0.4,0.1,0.8,0.1,1.1,0.1s0.7,0.1,1.1,0.1c0.4,0,0.8,0,1.1-0.1c0.4,0,0.7-0.1,1.1-0.1
			c0.9,1.8,1.9,3.7,2.9,5.4C11.7,114,12.8,115.9,14.1,118z"/>
		<path class="st0" d="M61.7,134c-0.5,0.3-1.2,0.5-1.9,0.7c-0.8,0.2-1.6,0.4-2.5,0.6c-0.9,0.2-1.9,0.2-2.9,0.2
			c-2.2,0-4.2-0.3-6-0.9c-1.8-0.6-3.4-1.6-4.8-2.8c-1.3-1.3-2.4-2.8-3.1-4.6c-0.8-1.8-1.1-3.9-1.1-6.2c0-2.3,0.4-4.4,1.1-6.2
			c0.8-1.8,1.8-3.4,3.2-4.6c1.4-1.3,3-2.2,4.9-2.9s4-1,6.3-1c1.8,0,3.5,0.2,5,0.6c1.5,0.4,2.8,0.8,4,1.3c-0.2,0.4-0.4,0.9-0.5,1.6
			s-0.2,1.2-0.3,1.6l-0.2,0.1c-0.3-0.3-0.7-0.7-1.2-1.1c-0.5-0.4-1.1-0.8-1.7-1.2c-0.7-0.4-1.4-0.7-2.2-1s-1.7-0.4-2.7-0.4
			c-1.6,0-3.1,0.3-4.5,0.8c-1.4,0.5-2.6,1.3-3.6,2.4c-1,1.1-1.8,2.5-2.4,4.1c-0.6,1.7-0.9,3.6-0.9,5.9c0,2.3,0.3,4.2,0.9,5.9
			c0.6,1.7,1.4,3,2.4,4.1c1,1.1,2.2,1.9,3.6,2.4c1.4,0.5,2.9,0.8,4.5,0.8c1,0,1.9-0.1,2.7-0.4c0.8-0.2,1.6-0.5,2.3-0.9
			c0.7-0.3,1.3-0.7,1.9-1.1c0.6-0.4,1-0.7,1.4-1l0.2,0.2l-0.4,2.4C62.6,133.5,62.2,133.8,61.7,134z"/>
		<path class="st0" d="M69.1,112.8c0-1.1,0-2.2-0.1-3.2s-0.1-2.1-0.1-3.1c0-1-0.1-1.8-0.1-2.5
			c0.8,0.1,1.4,0.2,1.9,0.2c0.5,0,1.1-0.1,1.9-0.2c-0.1,0.7-0.1,1.5-0.1,2.5c0,1-0.1,2-0.1,3.1c0,1.1,0,2.2-0.1,3.2
			c0,1.1,0,2.1,0,3v7.4c0,0.9,0,1.9,0,3c0,1.1,0,2.2,0.1,3.2c0,1.1,0.1,2.1,0.1,3c0,1,0.1,1.8,0.1,2.4c-0.6-0.1-1.2-0.1-1.9-0.1
			c-0.6,0-1.2,0-1.9,0.1c0.1-0.6,0.1-1.4,0.1-2.4c0-1,0.1-2,0.1-3s0-2.2,0.1-3.2c0-1.1,0-2.1,0-3v-7.4
			C69.2,114.9,69.2,113.9,69.1,112.8z"/>
		<path class="st0" d="M80,108.3c0-0.6,0.2-1.1,0.6-1.5c0.4-0.4,0.9-0.6,1.5-0.6c0.6,0,1.1,0.2,1.5,0.6
			c0.4,0.4,0.6,0.9,0.6,1.5c0,0.6-0.2,1.1-0.6,1.5c-0.4,0.4-0.9,0.6-1.5,0.6c-0.6,0-1.1-0.2-1.5-0.6C80.2,109.4,80,108.9,80,108.3z
			 M80.6,123.1c0-1.2,0-2.5-0.1-3.9c0-1.4-0.1-2.6-0.3-3.8c0.8,0.1,1.4,0.2,1.8,0.2s1.1-0.1,1.9-0.2c-0.1,1.2-0.2,2.4-0.3,3.8
			c0,1.4-0.1,2.7-0.1,3.9v4.3c0,1.2,0,2.5,0.1,3.9s0.1,2.6,0.3,3.7c-0.6-0.1-1.2-0.1-1.9-0.1s-1.2,0-1.8,0.1
			c0.1-1.1,0.2-2.3,0.3-3.7s0.1-2.7,0.1-3.9V123.1z"/>
		<path class="st0" d="M103.2,118.8c-0.8-1.1-1.9-1.6-3.3-1.6c-1.9,0-3.3,0.6-4.2,1.8s-1.3,2.8-1.3,5v3.5
			c0,1.2,0,2.5,0.1,3.9s0.1,2.6,0.3,3.7c-0.6-0.1-1.2-0.1-1.9-0.1c-0.6,0-1.2,0-1.9,0.1c0.1-1.1,0.2-2.3,0.3-3.7s0.1-2.7,0.1-3.9
			v-4.3c0-1.2,0-2.5-0.1-3.9c0-1.4-0.1-2.6-0.3-3.8c0.8,0.1,1.4,0.2,1.9,0.2c0.2,0,0.5,0,0.7-0.1s0.6-0.1,0.9-0.1
			c-0.1,1.1-0.1,2.2-0.1,3.3h0.1c0.8-1.2,1.7-2.1,2.8-2.7c1.1-0.6,2.3-1,3.8-1c0.8,0,1.5,0.1,2.3,0.3c0.8,0.2,1.5,0.6,2.1,1.1
			c0.6,0.5,1.1,1.3,1.5,2.2s0.6,2.1,0.6,3.5c0,1.2,0,2.4-0.1,3.6c-0.1,1.2-0.1,2.6-0.1,4v2.7c0,0.4,0,0.9,0,1.3
			c0,0.4,0,0.8,0.1,1.2c-0.5-0.1-1.1-0.1-1.7-0.1c-0.6,0-1.1,0-1.7,0.1c0.1-1.4,0.1-2.9,0.2-4.4c0.1-1.5,0.1-3.1,0.1-4.6v-2.5
			C104.4,121.4,104,119.8,103.2,118.8z"/>
		<path class="st0" d="M114.3,108.3c0-0.6,0.2-1.1,0.6-1.5s0.9-0.6,1.5-0.6c0.6,0,1.1,0.2,1.5,0.6
			c0.4,0.4,0.6,0.9,0.6,1.5c0,0.6-0.2,1.1-0.6,1.5c-0.4,0.4-0.9,0.6-1.5,0.6c-0.6,0-1.1-0.2-1.5-0.6
			C114.5,109.4,114.3,108.9,114.3,108.3z M114.9,123.1c0-1.2,0-2.5-0.1-3.9c0-1.4-0.1-2.6-0.3-3.8c0.8,0.1,1.4,0.2,1.9,0.2
			c0.5,0,1.1-0.1,1.9-0.2c-0.1,1.2-0.2,2.4-0.3,3.8c0,1.4-0.1,2.7-0.1,3.9v4.3c0,1.2,0,2.5,0.1,3.9s0.1,2.6,0.3,3.7
			c-0.6-0.1-1.2-0.1-1.9-0.1s-1.2,0-1.9,0.1c0.1-1.1,0.2-2.3,0.3-3.7s0.1-2.7,0.1-3.9V123.1z"/>
		<path class="st0" d="M123.9,125.3c0-1.8,0.3-3.3,0.9-4.6c0.6-1.3,1.4-2.4,2.4-3.2c1-0.8,2.1-1.5,3.4-1.9
			c1.3-0.4,2.5-0.6,3.9-0.6c1.5,0,2.9,0.2,4.1,0.6c1.2,0.4,2,0.8,2.6,1.3c-0.2,0.4-0.4,0.8-0.5,1.3c-0.2,0.5-0.3,0.9-0.4,1.4h-0.3
			c-0.2-0.4-0.5-0.7-0.8-1.1s-0.7-0.7-1.2-1c-0.5-0.3-1-0.6-1.5-0.8c-0.5-0.2-1.2-0.3-1.8-0.3c-1.2,0-2.3,0.2-3.2,0.7
			c-0.9,0.5-1.6,1.1-2.2,1.9c-0.6,0.8-1,1.7-1.2,2.8c-0.3,1.1-0.4,2.3-0.4,3.5c0,2.8,0.6,5,1.8,6.4s3,2.2,5.3,2.2
			c0.5,0,1.1-0.1,1.7-0.2c0.6-0.2,1.1-0.4,1.7-0.6c0.5-0.3,1.1-0.6,1.5-0.9s0.9-0.7,1.3-1.2l0.2,0.1c-0.1,0.7-0.2,1.3-0.2,2
			c-0.8,0.7-1.8,1.2-3.1,1.7c-1.2,0.5-2.5,0.7-3.8,0.7c-1.2,0-2.4-0.2-3.6-0.5c-1.2-0.3-2.3-0.9-3.2-1.7c-1-0.8-1.7-1.9-2.3-3.1
			C124.2,128.7,123.9,127.1,123.9,125.3z"/>
	</g>
	<path class="st1" d="M73.8,47c-0.4,0.5-1.1,0.9-1.8,0.9c-0.5,0-1-0.2-1.4-0.4c-1.7,4.2-6.4,14.7-15.3,23.6
		C46.4,80,35.9,84.8,31.7,86.4c0,0,0,0,0,0l39-39c-0.6-0.4-1-1.1-1-1.9c0-0.7,0.3-1.4,0.9-1.8L31.9,5.1c4.3,1.7,14.7,6.5,23.5,15.3
		C64,29,68.8,39.3,70.6,43.7c0.4-0.3,0.9-0.5,1.5-0.5c0.8,0,1.5,0.4,1.9,1l38.6-38.6c0,0,0,0,0,0c-1.7,4.2-6.4,14.8-15.3,23.7
		c-8.6,8.6-18.7,13.3-23.2,15.1c0.2,0.3,0.3,0.8,0.3,1.2C74.4,46.1,74.2,46.6,73.8,47c4.3,1.7,14.7,6.5,23.4,15.2
		c8.8,8.8,13.5,19.1,15.3,23.5L73.8,47z M88.4,71.1C79.9,62.6,75.2,52.6,73.3,48l38.2,38.2C107,84.3,96.9,79.6,88.4,71.1 M85,74.5
		c-7.1-7.1-10.1-16.8-11.3-23c2.5,5.2,6.9,13.3,14,20.3c7,7,15,11.5,20.3,14C101.9,84.6,92.1,81.7,85,74.5 M58.8,74.5
		c-7.1,7.1-16.8,10.1-23,11.3c5.2-2.5,13.3-6.9,20.3-14c7-7,11.5-15,14-20.3C68.8,57.7,65.9,67.4,58.8,74.5 M46.5,62.3
		c8.4-8.4,18.2-13.1,22.8-15L31.5,85.1C33.4,80.5,38.1,70.6,46.5,62.3 M43.1,58.9c7-7,16.6-10,22.8-11.2
		c-5.2,2.5-13.2,6.9-20.1,13.9c-6.9,6.9-11.4,14.9-13.9,20.1C33.1,75.5,36.1,65.9,43.1,58.9 M31.4,6.1l38.2,38.2
		c-4.5-1.9-14.5-6.6-23.1-15.1C38,20.7,33.3,10.7,31.4,6.1 M43.1,32.6C36,25.5,33,15.8,31.8,9.7c2.5,5.2,6.9,13.3,14,20.3
		c7,7,15,11.5,20.3,14C59.9,42.7,50.2,39.8,43.1,32.6 M58.8,17c7,7,10,16.6,11.2,22.8c-2.5-5.2-6.9-13.2-13.9-20.1
		C49.2,12.7,41.2,8.2,36,5.7C42.1,7,51.7,9.9,58.8,17 M88.4,20.4c8.4-8.4,18.2-13.1,22.8-15L73.4,43.2C75.3,38.6,80,28.7,88.4,20.4
		 M85,17c7-7,16.6-10,22.8-11.2c-5.2,2.5-13.2,6.9-20.1,13.9c-6.9,6.9-11.4,14.9-13.9,20.1C75,33.6,78,24,85,17 M100.7,32.6
		c-7.1,7.1-16.8,10.1-23,11.3c5.2-2.5,13.3-6.9,20.3-14c7-7,11.5-15,14-20.3C110.7,15.8,107.8,25.5,100.7,32.6 M100.7,58.9
		c7,7,10,16.6,11.2,22.8c-2.5-5.2-6.9-13.2-13.9-20.1c-6.9-6.9-14.9-11.4-20.1-13.9C84,48.9,93.6,51.8,100.7,58.9 M102.2,57.4
		C95,50.3,85.7,47.1,79.3,45.7c6.4-1.4,15.7-4.5,22.9-11.6c11.7-11.7,12.6-29.5,12.7-30.2l0.1-1.2l-1.2,0.1
		c-0.8,0-18.5,0.9-30.2,12.7c-7.1,7.1-10.2,16.5-11.6,22.9c-1.4-6.4-4.5-15.7-11.6-22.9C48.5,3.7,30.8,2.8,30,2.8l-1.2-0.1l0.1,1.2
		c0,0.8,0.9,18.5,12.7,30.2c7.1,7.1,16.5,10.2,22.9,11.6c-6.4,1.4-15.7,4.5-22.9,11.6C29.9,69.1,29,86.9,28.9,87.6l-0.1,1.2l1.2-0.1
		c0.8,0,18.5-0.9,30.2-12.7c7.1-7.1,10.2-16.5,11.6-22.9c1.4,6.4,4.5,15.7,11.6,22.9c11.7,11.7,29.5,12.6,30.2,12.7l1.2,0.1
		l-0.1-1.2C114.8,86.9,113.9,69.1,102.2,57.4"/>
</g>
</svg>
