<svg version="1.0" xmlns="http://www.w3.org/2000/svg" width="933.333" height="933.333" viewBox="0 0 700 700"><path d="M666.7 26.6c-.1.1-4 .5-8.7.8-4.7.3-10.3.8-12.5 1.1-5.4.7-16.5 2.4-19.1 2.9-1.2.2-3.9.7-6 1-14.1 2.2-37.6 8.2-56.4 14.5C494.9 70 442.7 107.3 405.9 160c-22.7 32.5-42.7 78.5-53 121.6-2.3 9.7-3.8 13.5-3.9 9.6 0-2.4-2.3-11.5-7.1-27.9-10.5-36.2-28.6-75.2-47.8-102.8-38.3-55.3-94.3-93.8-169.2-116.4-14.7-4.4-33.4-9-42.9-10.6-1.9-.3-4.2-.8-5-1-.8-.2-3.7-.7-6.5-1.1-2.7-.3-5.2-.8-5.5-.9-.3-.2-3.3-.6-6.5-1-3.3-.4-7.1-.9-8.5-1.1-1.4-.3-7.2-.7-12.9-1.1l-10.4-.6.7 11.4c.7 14.3 1 16.7 4.6 36.9 4.5 25.1 7.9 38.9 15.1 60.4 25.7 77.1 68 132.7 128.9 169.3 29.6 17.9 73.9 35.5 109 43.3 6.2 1.4 9.7 2.9 6.8 3-2.5 0-3 .1-5.6 1.1-1.2.5-3.3 1.1-4.5 1.3-5.7 1.2-7.6 1.7-16.1 4.2-31.9 9.4-63.3 22.8-88.1 37.7-9.2 5.5-25.3 16.2-26.5 17.6-.3.3-2.3 1.9-4.5 3.5-12.8 9.4-33.4 29.5-42.7 41.6-1.4 1.9-4.4 5.7-6.5 8.5-14.2 18.2-30 46.4-40.7 72.3-7.5 18.3-18.7 53.3-20.2 63.7-.3 1.6-.9 4.3-1.4 6-.5 1.6-1.2 4.3-1.4 6-.3 1.6-1.4 8.4-2.5 15-2.9 17.6-3 18.9-3.7 31.8l-.7 11.8 6.4-.6c3.5-.3 9.3-.7 12.9-1 21.9-1.8 57-8.8 80.5-16.1 9.1-2.8 26.5-8.9 31-10.9 1.7-.7 5.5-2.3 8.5-3.5 14.3-5.9 36.8-17.9 52-27.8 30.8-20.2 62.7-52.1 81.5-81.7 20.3-31.9 37.7-73.3 47-111.5 2.7-11.1 4.5-15.7 4.5-11.3 0 1.7.9 5.6 4.5 19.3 9.7 37.5 29.8 82 50.4 111.5 11.8 17.1 18.3 24.8 33.1 39.5 37.2 37.2 91.4 66.2 153.5 82 8.3 2.1 19.1 4.6 24 5.4 5 .9 10 1.8 11.1 2 3.2.6 8.3 1.4 13.9 2.1 2.8.4 5.9.8 7.1 1 1.1.2 5.2.6 9 .9 3.8.4 8.8.9 11.2 1.2l4.3.5-.6-7.3c-1.6-19.5-2.9-30.4-5-41.8-.8-4.1-1.6-8.9-1.8-10.5-1-6.8-8.9-36.9-13.3-50C634.6 510.4 606 464 570.3 431c-10-9.3-12.5-11.3-22.4-18.8-30.7-22.9-67.9-40.9-111.4-54-12-3.6-25.2-6.9-28.2-7.1-3.6-.2-.4-1.9 6.5-3.5 36.7-8.4 80.8-26.3 110.8-44.9 8.2-5.1 27.1-18.2 28.4-19.6.3-.3 2.8-2.4 5.5-4.6 21.4-17 46.5-47.2 63.3-76.2 21.2-36.5 38.6-87 45.7-132.8 2-13.1 2.6-18.9 4-36.8l.6-6.7-3.1.2c-1.7.1-3.2.3-3.3.4zM61.8 50.1c3.4 1.6 6.5 2.9 6.8 2.9 1.3 0 36.6 18 46.9 24 78.8 45.4 133.3 97.1 179.6 170.5 14.5 22.9 29.8 51.7 40.4 76.2l4.8 11.2 3.1-1.6c6.3-3.3 15.1-2 20.4 3l2.3 2.1L510.5 194C590 114.5 655 49.8 655 50.2c0 1.6-10.7 25.2-18 39.9-35.4 71-82.3 130-138 173.5-34.2 26.8-75.3 51.2-117.5 70-11.2 5-13.9 6.6-13.7 8.1 1.1 7 .8 10.5-1 13.9-1.1 2-1.6 4-1.1 4.4.4.5 4.9 2.5 9.8 4.5 20.5 8.3 54.1 26 77 40.4 18.6 11.8 50.2 34.7 59 42.7 1.1 1.1 5.8 5.3 10.5 9.4 22.7 20.1 51.8 52.4 65.7 72.9 2.1 3.1 6.1 8.7 8.9 12.6 17.5 23.9 39.9 64.7 55.2 100.5.8 1.9 1.9 4.4 2.4 5.5.6 1.1-64.5-63.4-144.5-143.4-136.4-136.3-145.6-145.3-147.2-143.7-2.7 2.6-7.3 4.7-10.8 4.7-3 0-4.4-.2-9.3-1.6-1.8-.6-2.7.9-8.4 13.7-7.4 16.7-17.4 36.8-24.2 48.6-2.6 4.6-4.8 8.5-4.8 8.7 0 1-18.5 29.8-26.3 41-44.6 63.8-98 110.8-172.2 151.7-7.4 4.1-29.7 15-40 19.6-14.5 6.4-18.9 8.3-18.4 7.8.2-.3 66.1-66.2 146.4-146.5l145.9-146-2.3-2.2c-6.4-6-6.8-17.3-.8-23.7l2.1-2.3L195 190.4C110 105.4 51.5 46.1 53 46.5c1.4.4 5.3 2.1 8.8 3.6zm581.8-2.4c-.5.5-63.8 64.1-140.9 141.5-77 77.4-140.2 140.6-140.4 140.4-1.2-1.1 20.9-46.2 31.9-65 6.8-11.7 8.3-14.2 18-29.1 27.6-42.5 65.4-83.8 104.3-114 36.3-28.1 68.2-47.1 121.5-72.3 4.7-2.1 6.9-2.8 5.6-1.5zM89.9 51.5c53.7 12.7 100.4 33.2 135.6 59.9 37.5 28.4 64.3 64.1 86.4 115.1 6.4 14.8 17.6 49.1 19.7 60.5.3 1.4 1.2 5 2 8.1.7 3.1 1.4 6.2 1.4 6.8 0 .7-3.3-5.3-7.3-13.1-9.6-18.7-32.7-58.2-35.6-60.8-.4-.3-2.4-3.2-4.6-6.5-19.3-29.1-55.6-69.4-84-93.1-33.3-27.7-69.6-51.7-109-71.8C87.4 53 81.9 50 82.4 50c.6 0 3.9.7 7.5 1.5zm527-1.2c-.2.2-6.5 3.6-14 7.5-44.7 23.3-84 49.9-115.4 78.2-6.2 5.6-29.4 28.8-35.5 35.5-13.6 15-30.4 36.7-42.7 55-8.2 12.3-20.3 31.3-20.3 32 0 .2-2.1 3.8-4.6 8.1-2.5 4.3-7.9 14.2-12 22.1-4.1 7.8-7.4 13.7-7.4 13.1 0-.6 1.8-8.4 4-17.2 4.2-17.1 10.9-38.3 15.9-50.5 1.7-4.1 3.1-7.8 3.1-8.3 0-.5 3.7-8.5 8.3-17.6 8.4-16.9 17.7-32.6 25.4-43 2.4-3.1 5-6.7 5.9-8 14.4-19.4 44.7-46.6 66.6-59.7 26.5-15.9 49.9-26.6 76.8-35.3 11.4-3.7 29.1-8.7 34.4-9.8 1.1-.3 3.7-.8 5.6-1.3 3.8-1 6.6-1.3 5.9-.8zM331 338.4c0 .5-.6.4-1.2-.1-.7-.5-4.9-2.4-9.3-4.3-17.8-7.5-54.8-27.3-75.2-40.2-14.7-9.4-48.1-33.1-50.3-35.7-.3-.4-3-2.6-6-5.1-10.8-8.7-29.1-25.9-39-36.6-11.8-12.8-14.1-15.5-22.3-25.6-30-37.3-59.8-87-79.2-132.3-2.5-5.7 3.8.3 139.9 136.5C266.8 273.4 331 337.9 331 338.4zM648.1 93c-11.6 46.5-27.7 85.3-48.6 117.5-30.2 46.5-75.9 82.2-134.4 104.9-17.9 7-40.4 14.2-50.5 16.2-1.2.2-5.8 1.2-10.4 2.3-4.6 1-7.9 1.5-7.5 1.1.4-.4 6.4-3.6 13.3-7.1 6.9-3.4 16.3-8.4 20.9-11.1 4.6-2.6 8.6-4.8 8.8-4.8.6 0 24.2-14.9 33.8-21.3 9-6 34.2-24.8 38-28.3 1.2-1.1 4.5-3.9 7.5-6.4 12.6-10.2 37.5-35 49.8-49.5 4.1-5 7.9-9.2 8.2-9.5.4-.3 5.6-7 11.7-15 20.5-27 37.4-54 53.6-85.2 4.4-8.7 8.2-15.6 8.4-15.5.1.2-1.1 5.4-2.6 11.7zM52.9 87.2c3.6 7.9 19.3 36.5 27.3 49.7 21.7 35.5 45.5 65.9 73.3 93.6 15.9 15.8 16.7 16.5 31 28.6 30.8 26 69.4 51.1 109.7 71.5 5.3 2.7 9.6 5 9.5 5.1-.3.3-22.1-5.2-32.2-8-31.1-9-61.9-22-87.3-37.1C117.5 251 73.1 184.4 51.6 91.7c-1.3-5.3-2-9.7-1.7-9.7.3 0 1.7 2.4 3 5.2zm235.4 316c-22.6 22.7-86.2 86.5-141.2 141.8L47 645.5l3.1-7.5c8.7-21.2 26.4-54.8 41.7-79 7.7-12.1 27.7-40.6 30.2-43 .3-.3 2.1-2.5 4-5 11.4-14.6 36.7-41.4 51.5-54.3 4.4-3.9 8.2-7.3 8.5-7.7 1.4-1.6 21.9-17.6 32.5-25.1 30.9-22.2 63.9-41.3 97.2-56.4 6.5-3 12.2-5.4 12.8-5.4.5-.1-17.5 18.5-40.2 41.1zm0-30.6c-32.3 16.6-60.9 34.6-87.5 55.1-5.9 4.5-12 9.3-13.5 10.6-1.6 1.3-6.4 5.5-10.8 9.2-12 10.3-38.7 37.4-50.5 51.5-28.5 33.9-53.3 72-71.1 109.3-2.3 4.8-4.4 8.5-4.6 8.3-.6-.6 5.5-25.1 9.3-37.6 5.1-16.6 5.7-18.2 11.2-32.1C105.5 460 164 406.9 259 376.2c11.5-3.7 26-7.7 31.9-8.8 1.3-.3 4-.9 6-1.3 7-1.7 6.1-1-8.6 6.5zm125.2-4c7.7 2 14.7 3.7 15.6 3.9.8.2 7.6 2.3 15 4.8 47 15.7 86.1 37.7 115.3 64.7 38.3 35.4 66.8 85.6 84.5 149 2.7 9.6 6.2 25.2 5.9 25.6-.2.1-2.8-4.5-5.7-10.4-19.2-37.8-45-77.1-70.8-107.9-9.1-10.9-34.2-36.8-45.3-46.9-12.7-11.5-30.6-25.6-52.5-41.2-12.3-8.8-42.5-26.6-63.2-37.3-8.4-4.4-14.7-7.9-14-7.9.7 0 7.5 1.6 15.2 3.6zM512 518.4c74.4 74.2 134.5 134.6 133.6 134.3-10.7-4.1-45.1-20.6-55.1-26.5-1.6-.9-6.1-3.5-10-5.6-16.8-9.4-40-24.9-62.5-41.9-25.3-19-56.3-49.5-78.3-77-13-16.3-33.7-46.3-42.7-62.2-13.7-23.8-28.9-53.6-33-64.5-.7-1.9-1.7-3.9-2.2-4.5-.4-.5-.8-1.4-.8-2 0-.5 3.6 2.6 7.9 7 4.4 4.4 68.8 68.7 143.1 142.9zm-130.7-90.9c2.2 3.8 5.3 9.5 7 12.5 3.8 6.8 13.1 21.7 21 33.5 24 35.8 57 72.7 88.8 99.2 4.8 3.9 9.3 7.8 10 8.5.8.7 7.3 5.6 14.4 11 24.9 18.4 53.4 36.1 82.8 51.2 8.1 4.2 14.4 7.6 14 7.6-.4 0-2.8-.5-5.3-1.1-2.5-.6-5.6-1.3-7-1.5-1.4-.3-5.4-1.4-9-2.4-3.6-1-7.6-2.1-9-2.3-4.6-.9-28.4-8.9-40.6-13.7-29.3-11.7-54.4-25.9-76.9-43.5-5.5-4.3-10.2-8.1-10.5-8.4-.3-.3-3.4-3.3-7-6.6-9.5-8.9-18.9-19.2-27.1-30-5-6.5-15.9-22.3-15.9-23 0-.3-1.6-3-3.7-6.2-6-9.4-17.7-33.8-23.6-49.3-7.9-20.7-14.8-44.4-19.2-66-.3-1.4 2.4 3.3 6.1 10.5 3.7 7.1 8.5 16.1 10.7 20zM333 408.6c-29.5 116.9-85.1 183.8-185.1 222.7-11.5 4.5-31.5 11.2-36 12.1-1.3.2-5.1 1.2-8.4 2.1-3.3.8-9.1 2.2-13 3.1-3.8.8-7.9 1.7-9 2-1.1.3 4.3-2.7 12-6.6 46.4-23.8 91.2-54.3 122.5-83.5 44.5-41.5 81.7-91.2 111.1-148.4 4.6-8.8 8.4-15.9 8.6-15.8.1.2-1.1 5.7-2.7 12.3z"/></svg>