<?xml version="1.0" standalone="no"?>
<!DOCTYPE svg PUBLIC "-//W3C//DTD SVG 20010904//EN"
 "http://www.w3.org/TR/2001/REC-SVG-20010904/DTD/svg10.dtd">
<svg version="1.0" xmlns="http://www.w3.org/2000/svg"
 width="700.000000pt" height="700.000000pt" viewBox="0 0 700.000000 700.000000"
 preserveAspectRatio="xMidYMid meet">
<metadata>
Created by potrace 1.11, written by Peter Selinger 2001-2013
</metadata>
<g transform="translate(0.000000,700.000000) scale(0.100000,-0.100000)"
fill="#000000" stroke="none">
<path d="M6667 6734 c-1 -1 -40 -5 -87 -8 -47 -3 -103 -8 -125 -11 -54 -7
-165 -24 -191 -29 -12 -2 -39 -7 -60 -10 -141 -22 -376 -82 -564 -145 -691
-231 -1213 -604 -1581 -1131 -227 -325 -427 -785 -530 -1216 -23 -97 -38 -135
-39 -96 0 24 -23 115 -71 279 -105 362 -286 752 -478 1028 -383 553 -943 938
-1692 1164 -147 44 -334 90 -429 106 -19 3 -42 8 -50 10 -8 2 -37 7 -65 11
-27 3 -52 8 -55 9 -3 2 -33 6 -65 10 -33 4 -71 9 -85 11 -14 3 -72 7 -129 11
l-104 6 7 -114 c7 -143 10 -167 46 -369 45 -251 79 -389 151 -604 257 -771
680 -1327 1289 -1693 296 -179 739 -355 1090 -433 62 -14 97 -29 68 -30 -25 0
-30 -1 -56 -11 -12 -5 -33 -11 -45 -13 -57 -12 -76 -17 -161 -42 -319 -94
-633 -228 -881 -377 -92 -55 -253 -162 -265 -176 -3 -3 -23 -19 -45 -35 -128
-94 -334 -295 -427 -416 -14 -19 -44 -57 -65 -85 -142 -182 -300 -464 -407
-723 -75 -183 -187 -533 -202 -637 -3 -16 -9 -43 -14 -60 -5 -16 -12 -43 -14
-60 -3 -16 -14 -84 -25 -150 -29 -176 -30 -189 -37 -318 l-7 -118 64 6 c35 3
93 7 129 10 219 18 570 88 805 161 91 28 265 89 310 109 17 7 55 23 85 35 143
59 368 179 520 278 308 202 627 521 815 817 203 319 377 733 470 1115 27 111
45 157 45 113 0 -17 9 -56 45 -193 97 -375 298 -820 504 -1115 118 -171 183
-248 331 -395 372 -372 914 -662 1535 -820 83 -21 191 -46 240 -54 50 -9 100
-18 111 -20 32 -6 83 -14 139 -21 28 -4 59 -8 71 -10 11 -2 52 -6 90 -9 38 -4
88 -9 112 -12 l43 -5 -6 73 c-16 195 -29 304 -50 418 -8 41 -16 89 -18 105
-10 68 -89 369 -133 500 -178 541 -464 1005 -821 1335 -100 93 -125 113 -224
188 -307 229 -679 409 -1114 540 -120 36 -252 69 -282 71 -36 2 -4 19 65 35
367 84 808 263 1108 449 82 51 271 182 284 196 3 3 28 24 55 46 214 170 465
472 633 762 212 365 386 870 457 1328 20 131 26 189 40 368 l6 67 -31 -2 c-17
-1 -32 -3 -33 -4z m-6049 -235 c34 -16 65 -29 68 -29 13 0 366 -180 469 -240
788 -454 1333 -971 1796 -1705 145 -229 298 -517 404 -762 l48 -112 31 16 c63
33 151 20 204 -30 l23 -21 1444 1444 c795 795 1445 1442 1445 1438 0 -16 -107
-252 -180 -399 -354 -710 -823 -1300 -1380 -1735 -342 -268 -753 -512 -1175
-700 -112 -50 -139 -66 -137 -81 11 -70 8 -105 -10 -139 -11 -20 -16 -40 -11
-44 4 -5 49 -25 98 -45 205 -83 541 -260 770 -404 186 -118 502 -347 590 -427
11 -11 58 -53 105 -94 227 -201 518 -524 657 -729 21 -31 61 -87 89 -126 175
-239 399 -647 552 -1005 8 -19 19 -44 24 -55 6 -11 -645 634 -1445 1434 -1364
1363 -1456 1453 -1472 1437 -27 -26 -73 -47 -108 -47 -30 0 -44 2 -93 16 -18
6 -27 -9 -84 -137 -74 -167 -174 -368 -242 -486 -26 -46 -48 -85 -48 -87 0
-10 -185 -298 -263 -410 -446 -638 -980 -1108 -1722 -1517 -74 -41 -297 -150
-400 -196 -145 -64 -189 -83 -184 -78 2 3 661 662 1464 1465 l1459 1460 -23
22 c-64 60 -68 173 -8 237 l21 23 -1444 1445 c-850 850 -1435 1443 -1420 1439
14 -4 53 -21 88 -36z m5818 24 c-5 -5 -638 -641 -1409 -1415 -770 -774 -1402
-1406 -1404 -1404 -12 11 209 462 319 650 68 117 83 142 180 291 276 425 654
838 1043 1140 363 281 682 471 1215 723 47 21 69 28 56 15z m-5537 -38 c537
-127 1004 -332 1356 -599 375 -284 643 -641 864 -1151 64 -148 176 -491 197
-605 3 -14 12 -50 20 -81 7 -31 14 -62 14 -68 0 -7 -33 53 -73 131 -96 187
-327 582 -356 608 -4 3 -24 32 -46 65 -193 291 -556 694 -840 931 -333 277
-696 517 -1090 718 -71 36 -126 66 -121 66 6 0 39 -7 75 -15z m5270 12 c-2 -2
-65 -36 -140 -75 -447 -233 -840 -499 -1154 -782 -62 -56 -294 -288 -355 -355
-136 -150 -304 -367 -427 -550 -82 -123 -203 -313 -203 -320 0 -2 -21 -38 -46
-81 -25 -43 -79 -142 -120 -221 -41 -78 -74 -137 -74 -131 0 6 18 84 40 172
42 171 109 383 159 505 17 41 31 78 31 83 0 5 37 85 83 176 84 169 177 326
254 430 24 31 50 67 59 80 144 194 447 466 666 597 265 159 499 266 768 353
114 37 291 87 344 98 11 3 37 8 56 13 38 10 66 13 59 8z m-2859 -2881 c0 -5
-6 -4 -12 1 -7 5 -49 24 -93 43 -178 75 -548 273 -752 402 -147 94 -481 331
-503 357 -3 4 -30 26 -60 51 -108 87 -291 259 -390 366 -118 128 -141 155
-223 256 -300 373 -598 870 -792 1323 -25 57 38 -3 1399 -1365 784 -784 1426
-1429 1426 -1434z m3171 2454 c-116 -465 -277 -853 -486 -1175 -302 -465 -759
-822 -1344 -1049 -179 -70 -404 -142 -505 -162 -12 -2 -58 -12 -104 -23 -46
-10 -79 -15 -75 -11 4 4 64 36 133 71 69 34 163 84 209 111 46 26 86 48 88 48
6 0 242 149 338 213 90 60 342 248 380 283 12 11 45 39 75 64 126 102 375 350
498 495 41 50 79 92 82 95 4 3 56 70 117 150 205 270 374 540 536 852 44 87
82 156 84 155 1 -2 -11 -54 -26 -117z m-5952 58 c36 -79 193 -365 273 -497
217 -355 455 -659 733 -936 159 -158 167 -165 310 -286 308 -260 694 -511
1097 -715 53 -27 96 -50 95 -51 -3 -3 -221 52 -322 80 -311 90 -619 220 -873
371 -667 396 -1111 1062 -1326 1989 -13 53 -20 97 -17 97 3 0 17 -24 30 -52z
m2354 -3160 c-226 -227 -862 -865 -1412 -1418 l-1001 -1005 31 75 c87 212 264
548 417 790 77 121 277 406 302 430 3 3 21 25 40 50 114 146 367 414 515 543
44 39 82 73 85 77 14 16 219 176 325 251 309 222 639 413 972 564 65 30 122
54 128 54 5 1 -175 -185 -402 -411z m0 306 c-323 -166 -609 -346 -875 -551
-59 -45 -120 -93 -135 -106 -16 -13 -64 -55 -108 -92 -120 -103 -387 -374
-505 -515 -285 -339 -533 -720 -711 -1093 -23 -48 -44 -85 -46 -83 -6 6 55
251 93 376 51 166 57 182 112 321 347 869 932 1400 1882 1707 115 37 260 77
319 88 13 3 40 9 60 13 70 17 61 10 -86 -65z m1252 40 c77 -20 147 -37 156
-39 8 -2 76 -23 150 -48 470 -157 861 -377 1153 -647 383 -354 668 -856 845
-1490 27 -96 62 -252 59 -256 -2 -1 -28 45 -57 104 -192 378 -450 771 -708
1079 -91 109 -342 368 -453 469 -127 115 -306 256 -525 412 -123 88 -425 266
-632 373 -84 44 -147 79 -140 79 7 0 75 -16 152 -36z m985 -1498 c744 -742
1345 -1346 1336 -1343 -107 41 -451 206 -551 265 -16 9 -61 35 -100 56 -168
94 -400 249 -625 419 -253 190 -563 495 -783 770 -130 163 -337 463 -427 622
-137 238 -289 536 -330 645 -7 19 -17 39 -22 45 -4 5 -8 14 -8 20 0 5 36 -26
79 -70 44 -44 688 -687 1431 -1429z m-1307 909 c22 -38 53 -95 70 -125 38 -68
131 -217 210 -335 240 -358 570 -727 888 -992 48 -39 93 -78 100 -85 8 -7 73
-56 144 -110 249 -184 534 -361 828 -512 81 -42 144 -76 140 -76 -4 0 -28 5
-53 11 -25 6 -56 13 -70 15 -14 3 -54 14 -90 24 -36 10 -76 21 -90 23 -46 9
-284 89 -406 137 -293 117 -544 259 -769 435 -55 43 -102 81 -105 84 -3 3 -34
33 -70 66 -95 89 -189 192 -271 300 -50 65 -159 223 -159 230 0 3 -16 30 -37
62 -60 94 -177 338 -236 493 -79 207 -148 444 -192 660 -3 14 24 -33 61 -105
37 -71 85 -161 107 -200z m-483 189 c-295 -1169 -851 -1838 -1851 -2227 -115
-45 -315 -112 -360 -121 -13 -2 -51 -12 -84 -21 -33 -8 -91 -22 -130 -31 -38
-8 -79 -17 -90 -20 -11 -3 43 27 120 66 464 238 912 543 1225 835 445 415 817
912 1111 1484 46 88 84 159 86 158 1 -2 -11 -57 -27 -123z"/>
</g>
</svg>
