<svg xmlns="http://www.w3.org/2000/svg" viewBox="0 0 157.5 153.5"><path d="M22.2 121.9c1.3-1.9 2.4-3.7 3.5-5.5 1.1-1.8 2.2-3.7 3.4-5.8.6.1 1.1.2 1.5.2.4 0 .9-.1 1.5-.2-1.6 2.2-3.1 4.3-4.6 6.4-1.5 2.1-3 4.2-4.4 6.5 1.6 2.7 3.1 5.3 4.7 7.8s3.2 5.1 4.8 7.6c-.4-.1-.8-.1-1.2-.1H29c-.4 0-.8 0-1.2.1-1.1-2-2.2-4-3.3-6.1-1.1-2.1-2.3-4.1-3.7-6.2-1.4 2.1-2.7 4.2-3.9 6.2-1.2 2.1-2.4 4.1-3.5 6.1-.3-.1-.5-.1-.8-.1h-1.4c-.3 0-.5 0-.8.1l4.8-6.9c1.6-2.3 3.1-4.7 4.7-7.1-1.4-2.4-2.9-4.8-4.3-7.1s-2.9-4.7-4.4-7.1c.4.1.8.1 1.1.1.4 0 .7.1 1.1.1.4 0 .8 0 1.1-.1.4 0 .7-.1 1.1-.1.9 1.8 1.9 3.7 2.9 5.4 1.3 1.7 2.4 3.7 3.7 5.8zm49.7 16c-.5.3-1.2.5-1.9.7-.8.2-1.6.4-2.5.6-.9.2-1.9.2-2.9.2-2.2 0-4.2-.3-6-.9-1.8-.6-3.4-1.6-4.8-2.8-1.3-1.3-2.4-2.8-3.1-4.6-.8-1.8-1.1-3.9-1.1-6.2 0-2.3.4-4.4 1.1-6.2.8-1.8 1.8-3.4 3.2-4.6 1.4-1.3 3-2.2 4.9-2.9 1.9-.7 4-1 6.3-1 1.8 0 3.5.2 5 .6 1.5.4 2.8.8 4 1.3-.2.4-.4.9-.5 1.6-.1.7-.2 1.2-.3 1.6l-.2.1c-.3-.3-.7-.7-1.2-1.1-.5-.4-1.1-.8-1.7-1.2-.7-.4-1.4-.7-2.2-1-.8-.3-1.7-.4-2.7-.4-1.6 0-3.1.3-4.5.8s-2.6 1.3-3.6 2.4c-1 1.1-1.8 2.5-2.4 4.1-.6 1.7-.9 3.6-.9 5.9 0 2.3.3 4.2.9 5.9.6 1.7 1.4 3 2.4 4.1 1 1.1 2.2 1.9 3.6 2.4s2.9.8 4.5.8c1 0 1.9-.1 2.7-.4.8-.2 1.6-.5 2.3-.9.7-.3 1.3-.7 1.9-1.1.6-.4 1-.7 1.4-1l.2.2-.4 2.4c-.6.1-1 .3-1.5.6zm8.3-21.3c0-1.1 0-2.2-.1-3.2 0-1.1-.1-2.1-.1-3.1s-.1-1.8-.1-2.5c.8.1 1.4.2 1.9.2s1.1-.1 1.9-.2c-.1.7-.1 1.5-.1 2.5s-.1 2-.1 3.1 0 2.2-.1 3.2V130c0 1.1 0 2.2.1 3.2 0 1.1.1 2.1.1 3 0 1 .1 1.8.1 2.4-.6-.1-1.2-.1-1.9-.1-.6 0-1.2 0-1.9.1.1-.6.1-1.4.1-2.4s.1-2 .1-3c0-1.1 0-2.2.1-3.2v-13.4zm11.4-2.4c.6 0 1.1-.2 1.5-.6.4-.4.6-.9.6-1.5s-.2-1.1-.6-1.5c-.4-.4-.9-.6-1.5-.6s-1.1.2-1.5.6c-.4.4-.6.9-.6 1.5s.2 1.1.6 1.5c.4.4.9.6 1.5.6zm1.6 8.9c0-1.4.1-2.6.3-3.8-.8.1-1.4.2-1.9.2s-1.1-.1-1.8-.2c.1 1.2.2 2.4.3 3.8 0 1.4.1 2.7.1 3.9v4.3c0 1.2 0 2.5-.1 3.9 0 1.4-.1 2.6-.3 3.7.6-.1 1.2-.1 1.8-.1s1.2 0 1.9.1c-.1-1.1-.2-2.3-.3-3.7 0-1.4-.1-2.7-.1-3.9V127c0-1.2.1-2.5.1-3.9zm18.8-.5c-.8-1.1-1.9-1.6-3.3-1.6-1.9 0-3.3.6-4.2 1.8-.9 1.2-1.3 2.8-1.3 5v3.5c0 1.2 0 2.5.1 3.9 0 1.4.1 2.6.3 3.7-.6-.1-1.2-.1-1.9-.1-.6 0-1.2 0-1.9.1.1-1.1.2-2.3.3-3.7 0-1.4.1-2.7.1-3.9V127c0-1.2 0-2.5-.1-3.9 0-1.4-.1-2.6-.3-3.8.8.1 1.4.2 1.9.2.2 0 .5 0 .7-.1.3 0 .6-.1.9-.1-.1 1.1-.1 2.2-.1 3.3h.1c.8-1.2 1.7-2.1 2.8-2.7 1.1-.6 2.3-1 3.8-1 .8 0 1.5.1 2.3.3.8.2 1.5.6 2.1 1.1.6.5 1.1 1.3 1.5 2.2.4.9.6 2.1.6 3.5 0 1.2 0 2.4-.1 3.6-.1 1.2-.1 2.6-.1 4v4c0 .4 0 .8.1 1.2-.5-.1-1.1-.1-1.7-.1-.6 0-1.1 0-1.7.1.1-1.4.1-2.9.2-4.4.1-1.5.1-3.1.1-4.6v-2.5c0-2.1-.4-3.6-1.2-4.7zm9.9-10.5c0-.6.2-1.1.6-1.5.4-.4.9-.6 1.5-.6s1.1.2 1.5.6c.4.4.6.9.6 1.5s-.2 1.1-.6 1.5c-.4.4-.9.6-1.5.6s-1.1-.2-1.5-.6c-.4-.4-.6-.9-.6-1.5zm.5 14.9c0-1.2 0-2.5-.1-3.9 0-1.4-.1-2.6-.3-3.8.8.1 1.4.2 1.9.2s1.1-.1 1.9-.2c-.1 1.2-.2 2.4-.3 3.8 0 1.4-.1 2.7-.1 3.9v4.3c0 1.2 0 2.5.1 3.9 0 1.4.1 2.6.3 3.7-.6-.1-1.2-.1-1.9-.1s-1.2 0-1.9.1c.1-1.1.2-2.3.3-3.7 0-1.4.1-2.7.1-3.9V127zm9.2 2.1c0-1.8.3-3.3.9-4.6.6-1.3 1.4-2.4 2.4-3.2 1-.8 2.1-1.5 3.4-1.9 1.3-.4 2.5-.6 3.9-.6 1.5 0 2.9.2 4.1.6 1.2.4 2 .8 2.6 1.3-.2.4-.4.8-.5 1.3-.2.5-.3.9-.4 1.4h-.3c-.2-.4-.5-.7-.8-1.1s-.7-.7-1.2-1c-.5-.3-1-.6-1.5-.8-.5-.2-1.2-.3-1.8-.3-1.2 0-2.3.2-3.2.7-.9.5-1.6 1.1-2.2 1.9-.6.8-1 1.7-1.2 2.8-.3 1.1-.4 2.3-.4 3.5 0 2.8.6 5 1.8 6.4 1.2 1.4 3 2.2 5.3 2.2.5 0 1.1-.1 1.7-.2.6-.2 1.1-.4 1.7-.6.5-.3 1.1-.6 1.5-.9.5-.4.9-.7 1.3-1.2l.2.1c-.1.7-.2 1.3-.2 2-.8.7-1.8 1.2-3.1 1.7-1.2.5-2.5.7-3.8.7-1.2 0-2.4-.2-3.6-.5-1.2-.3-2.3-.9-3.2-1.7-1-.8-1.7-1.9-2.3-3.1-.8-1.4-1.1-3-1.1-4.9zm-92.4-3.7h3c.9 0 1.8.1 2.5.2 0-.4-.1-.8-.1-1.3 0-.4 0-.8.1-1.3-.7.1-1.6.2-2.5.2h-6c-.9 0-1.8-.1-2.5-.2 0 .4.1.8.1 1.3 0 .4 0 .8-.1 1.3.7-.1 1.6-.2 2.5-.2h3z" fill="#101820"/><path d="M81.9 50.9c-.4.5-1.1.9-1.8.9-.5 0-1-.2-1.4-.4C77 55.6 72.3 66.1 63.4 75c-8.9 8.9-19.5 13.7-23.7 15.3l39-39c-.6-.4-1-1.1-1-1.9 0-.7.3-1.4.9-1.8L40 9c4.3 1.7 14.7 6.5 23.5 15.3 8.7 8.7 13.4 18.9 15.2 23.3.4-.3.9-.5 1.5-.5.8 0 1.5.4 1.9 1l38.6-38.6c-1.7 4.2-6.4 14.8-15.3 23.7-8.6 8.6-18.7 13.3-23.2 15.1.2.3.3.8.3 1.2 0 .4-.2 1-.6 1.4 4.3 1.7 14.7 6.5 23.4 15.2 8.8 8.8 13.5 19.1 15.3 23.5L81.9 50.9zm14.6 24c-8.5-8.5-13.2-18.5-15.1-23L119.6 90c-4.6-1.8-14.6-6.6-23.1-15.1m-3.4 3.5C86 71.3 83 61.6 81.8 55.4c2.5 5.2 6.9 13.3 14 20.3 7 7 15 11.5 20.3 14-6.2-1.2-15.9-4.2-23-11.3m-26.2 0c-7.1 7.1-16.8 10.1-23 11.3 5.2-2.5 13.3-6.9 20.3-14 7-7 11.5-15 14-20.3-1.3 6.1-4.2 15.9-11.3 23M54.6 66.1c8.4-8.4 18.2-13.1 22.8-15L39.6 89c1.9-4.7 6.6-14.5 15-22.9m-3.4-3.4c7-7 16.6-10 22.8-11.2-5.2 2.5-13.2 6.9-20.1 13.9-7 6.9-11.5 14.8-13.9 20.1 1.2-6.2 4.1-15.7 11.2-22.8M39.5 10l38.2 38.2c-4.5-1.9-14.5-6.6-23.1-15.1-8.5-8.6-13.2-18.6-15.1-23.1m11.7 26.5c-7.1-7.1-10.1-16.8-11.3-23 2.5 5.2 6.9 13.3 14 20.3 7 7 15 11.5 20.3 14-6.2-1.3-15.9-4.2-23-11.3m15.7-15.7c7 7 10 16.6 11.2 22.8-2.5-5.2-6.9-13.2-13.9-20.1-6.9-6.9-14.9-11.4-20.1-13.9 6.1 1.2 15.7 4.2 22.8 11.2m29.6 3.4c8.4-8.4 18.2-13.1 22.8-15L81.5 47.1c1.9-4.7 6.6-14.5 15-22.9m-3.4-3.4c7-7 16.6-10 22.8-11.2-5.2 2.5-13.2 6.9-20.1 13.9-6.9 6.9-11.4 14.9-13.9 20.1 1.2-6.2 4.1-15.7 11.2-22.8m15.7 15.7c-7.1 7.1-16.8 10.1-23 11.3 5.2-2.5 13.3-6.9 20.3-14 7-7 11.5-15 14-20.3-1.3 6.2-4.2 15.9-11.3 23m0 26.2c7 7 10 16.6 11.2 22.8-2.5-5.2-6.9-13.2-13.9-20.1-6.9-7-14.9-11.4-20.1-13.9 6.1 1.2 15.7 4.2 22.8 11.2m1.4-1.5c-7.1-7.1-16.5-10.2-22.9-11.6 6.4-1.4 15.7-4.5 22.9-11.6C122 26.3 122.9 8.5 122.9 7.7l.1-1.2-1.2.1c-.8 0-18.5.9-30.2 12.7-7.1 7.1-10.3 16.5-11.6 22.9-1.4-6.4-4.5-15.7-11.6-22.9C56.6 7.6 38.9 6.7 38.1 6.6H37v1.1c0 .8 1 18.6 12.7 30.3 7.1 7.1 16.5 10.2 22.9 11.6-6.4 1.4-15.7 4.5-22.9 11.6C38 72.9 37 90.7 37 91.5v1.1l1.2-.1c.8 0 18.5-.9 30.2-12.7 7.1-7 10.2-16.4 11.6-22.8 1.4 6.4 4.5 15.7 11.6 22.9 11.7 11.7 29.5 12.6 30.2 12.7l1.2.1-.1-1.2c0-.8-.9-18.6-12.7-30.3" fill="#97999b"/></svg>