<svg xmlns="http://www.w3.org/2000/svg" viewBox="0 0 144 138"><path d="M14.1 118c1.3-1.9 2.4-3.7 3.5-5.5 1.1-1.8 2.2-3.7 3.4-5.8.6.1 1.1.2 1.5.2.4 0 .9-.1 1.5-.2-1.6 2.2-3.1 4.3-4.6 6.4-1.5 2.1-3 4.2-4.4 6.5 1.6 2.7 3.1 5.3 4.7 7.8s3.2 5.1 4.8 7.6c-.4-.1-.8-.1-1.2-.1h-2.4c-.4 0-.8 0-1.2.1-1.1-2-2.2-4-3.3-6.1-1.1-2.1-2.3-4.1-3.7-6.2-1.4 2.1-2.7 4.2-3.9 6.2-1.2 2.1-2.4 4.1-3.5 6.1-.3-.1-.5-.1-.8-.1H3.1c-.3 0-.5 0-.8.1l4.8-6.9c1.6-2.3 3.1-4.7 4.7-7.1-1.4-2.4-2.9-4.8-4.3-7.1s-2.9-4.7-4.4-7.1c.4.1.8.1 1.1.1s.7.1 1.1.1c.4 0 .8 0 1.1-.1.4 0 .7-.1 1.1-.1.9 1.8 1.9 3.7 2.9 5.4 1.3 1.8 2.4 3.7 3.7 5.8zm47.6 16c-.5.3-1.2.5-1.9.7-.8.2-1.6.4-2.5.6-.9.2-1.9.2-2.9.2-2.2 0-4.2-.3-6-.9-1.8-.6-3.4-1.6-4.8-2.8-1.3-1.3-2.4-2.8-3.1-4.6-.8-1.8-1.1-3.9-1.1-6.2 0-2.3.4-4.4 1.1-6.2.8-1.8 1.8-3.4 3.2-4.6 1.4-1.3 3-2.2 4.9-2.9s4-1 6.3-1c1.8 0 3.5.2 5 .6 1.5.4 2.8.8 4 1.3-.2.4-.4.9-.5 1.6s-.2 1.2-.3 1.6l-.2.1c-.3-.3-.7-.7-1.2-1.1-.5-.4-1.1-.8-1.7-1.2-.7-.4-1.4-.7-2.2-1s-1.7-.4-2.7-.4c-1.6 0-3.1.3-4.5.8S48 109.9 47 111c-1 1.1-1.8 2.5-2.4 4.1-.6 1.7-.9 3.6-.9 5.9 0 2.3.3 4.2.9 5.9.6 1.7 1.4 3 2.4 4.1 1 1.1 2.2 1.9 3.6 2.4s2.9.8 4.5.8c1 0 1.9-.1 2.7-.4.8-.2 1.6-.5 2.3-.9.7-.3 1.3-.7 1.9-1.1.6-.4 1-.7 1.4-1l.2.2-.4 2.4c-.6.1-1 .4-1.5.6zm7.4-21.2c0-1.1 0-2.2-.1-3.2s-.1-2.1-.1-3.1-.1-1.8-.1-2.5c.8.1 1.4.2 1.9.2s1.1-.1 1.9-.2c-.1.7-.1 1.5-.1 2.5s-.1 2-.1 3.1 0 2.2-.1 3.2v13.4c0 1.1 0 2.2.1 3.2 0 1.1.1 2.1.1 3 0 1 .1 1.8.1 2.4-.6-.1-1.2-.1-1.9-.1-.6 0-1.2 0-1.9.1.1-.6.1-1.4.1-2.4s.1-2 .1-3 0-2.2.1-3.2v-10.4c.1-.9.1-1.9 0-3zm10.9-4.5c0-.6.2-1.1.6-1.5.4-.4.9-.6 1.5-.6s1.1.2 1.5.6c.4.4.6.9.6 1.5s-.2 1.1-.6 1.5c-.4.4-.9.6-1.5.6s-1.1-.2-1.5-.6c-.4-.4-.6-.9-.6-1.5zm.6 14.8c0-1.2 0-2.5-.1-3.9 0-1.4-.1-2.6-.3-3.8.8.1 1.4.2 1.8.2s1.1-.1 1.9-.2c-.1 1.2-.2 2.4-.3 3.8 0 1.4-.1 2.7-.1 3.9v4.3c0 1.2 0 2.5.1 3.9s.1 2.6.3 3.7c-.6-.1-1.2-.1-1.9-.1s-1.2 0-1.8.1c.1-1.1.2-2.3.3-3.7s.1-2.7.1-3.9v-4.3zm22.6-4.3c-.8-1.1-1.9-1.6-3.3-1.6-1.9 0-3.3.6-4.2 1.8s-1.3 2.8-1.3 5v3.5c0 1.2 0 2.5.1 3.9s.1 2.6.3 3.7c-.6-.1-1.2-.1-1.9-.1-.6 0-1.2 0-1.9.1.1-1.1.2-2.3.3-3.7s.1-2.7.1-3.9v-4.3c0-1.2 0-2.5-.1-3.9 0-1.4-.1-2.6-.3-3.8.8.1 1.4.2 1.9.2.2 0 .5 0 .7-.1s.6-.1.9-.1c-.1 1.1-.1 2.2-.1 3.3h.1c.8-1.2 1.7-2.1 2.8-2.7 1.1-.6 2.3-1 3.8-1 .8 0 1.5.1 2.3.3.8.2 1.5.6 2.1 1.1.6.5 1.1 1.3 1.5 2.2s.6 2.1.6 3.5c0 1.2 0 2.4-.1 3.6-.1 1.2-.1 2.6-.1 4v4c0 .4 0 .8.1 1.2-.5-.1-1.1-.1-1.7-.1-.6 0-1.1 0-1.7.1.1-1.4.1-2.9.2-4.4.1-1.5.1-3.1.1-4.6v-2.5c0-2.1-.4-3.7-1.2-4.7zm11.1-10.5c0-.6.2-1.1.6-1.5s.9-.6 1.5-.6 1.1.2 1.5.6c.4.4.6.9.6 1.5s-.2 1.1-.6 1.5c-.4.4-.9.6-1.5.6s-1.1-.2-1.5-.6c-.4-.4-.6-.9-.6-1.5zm.6 14.8c0-1.2 0-2.5-.1-3.9 0-1.4-.1-2.6-.3-3.8.8.1 1.4.2 1.9.2s1.1-.1 1.9-.2c-.1 1.2-.2 2.4-.3 3.8 0 1.4-.1 2.7-.1 3.9v4.3c0 1.2 0 2.5.1 3.9s.1 2.6.3 3.7c-.6-.1-1.2-.1-1.9-.1s-1.2 0-1.9.1c.1-1.1.2-2.3.3-3.7s.1-2.7.1-3.9v-4.3zm9 2.2c0-1.8.3-3.3.9-4.6.6-1.3 1.4-2.4 2.4-3.2 1-.8 2.1-1.5 3.4-1.9 1.3-.4 2.5-.6 3.9-.6 1.5 0 2.9.2 4.1.6 1.2.4 2 .8 2.6 1.3-.2.4-.4.8-.5 1.3-.2.5-.3.9-.4 1.4h-.3c-.2-.4-.5-.7-.8-1.1s-.7-.7-1.2-1c-.5-.3-1-.6-1.5-.8-.5-.2-1.2-.3-1.8-.3-1.2 0-2.3.2-3.2.7-.9.5-1.6 1.1-2.2 1.9-.6.8-1 1.7-1.2 2.8-.3 1.1-.4 2.3-.4 3.5 0 2.8.6 5 1.8 6.4s3 2.2 5.3 2.2c.5 0 1.1-.1 1.7-.2.6-.2 1.1-.4 1.7-.6.5-.3 1.1-.6 1.5-.9s.9-.7 1.3-1.2l.2.1c-.1.7-.2 1.3-.2 2-.8.7-1.8 1.2-3.1 1.7-1.2.5-2.5.7-3.8.7-1.2 0-2.4-.2-3.6-.5-1.2-.3-2.3-.9-3.2-1.7-1-.8-1.7-1.9-2.3-3.1-.8-1.5-1.1-3.1-1.1-4.9z" fill="#101820"/><path d="M73.8 47c-.4.5-1.1.9-1.8.9-.5 0-1-.2-1.4-.4-1.7 4.2-6.4 14.7-15.3 23.6-8.9 8.9-19.4 13.7-23.6 15.3l39-39c-.6-.4-1-1.1-1-1.9 0-.7.3-1.4.9-1.8L31.9 5.1c4.3 1.7 14.7 6.5 23.5 15.3C64 29 68.8 39.3 70.6 43.7c.4-.3.9-.5 1.5-.5.8 0 1.5.4 1.9 1l38.6-38.6c-1.7 4.2-6.4 14.8-15.3 23.7-8.6 8.6-18.7 13.3-23.2 15.1.2.3.3.8.3 1.2 0 .5-.2 1-.6 1.4 4.3 1.7 14.7 6.5 23.4 15.2 8.8 8.8 13.5 19.1 15.3 23.5L73.8 47zm14.6 24.1C79.9 62.6 75.2 52.6 73.3 48l38.2 38.2c-4.5-1.9-14.6-6.6-23.1-15.1M85 74.5c-7.1-7.1-10.1-16.8-11.3-23 2.5 5.2 6.9 13.3 14 20.3 7 7 15 11.5 20.3 14-6.1-1.2-15.9-4.1-23-11.3m-26.2 0c-7.1 7.1-16.8 10.1-23 11.3 5.2-2.5 13.3-6.9 20.3-14 7-7 11.5-15 14-20.3-1.3 6.2-4.2 15.9-11.3 23M46.5 62.3c8.4-8.4 18.2-13.1 22.8-15L31.5 85.1c1.9-4.6 6.6-14.5 15-22.8m-3.4-3.4c7-7 16.6-10 22.8-11.2-5.2 2.5-13.2 6.9-20.1 13.9-6.9 6.9-11.4 14.9-13.9 20.1 1.2-6.2 4.2-15.8 11.2-22.8M31.4 6.1l38.2 38.2c-4.5-1.9-14.5-6.6-23.1-15.1C38 20.7 33.3 10.7 31.4 6.1m11.7 26.5C36 25.5 33 15.8 31.8 9.7c2.5 5.2 6.9 13.3 14 20.3 7 7 15 11.5 20.3 14-6.2-1.3-15.9-4.2-23-11.4M58.8 17c7 7 10 16.6 11.2 22.8-2.5-5.2-6.9-13.2-13.9-20.1-6.9-7-14.9-11.5-20.1-14C42.1 7 51.7 9.9 58.8 17m29.6 3.4c8.4-8.4 18.2-13.1 22.8-15L73.4 43.2c1.9-4.6 6.6-14.5 15-22.8M85 17c7-7 16.6-10 22.8-11.2-5.2 2.5-13.2 6.9-20.1 13.9-6.9 6.9-11.4 14.9-13.9 20.1C75 33.6 78 24 85 17m15.7 15.6c-7.1 7.1-16.8 10.1-23 11.3C82.9 41.4 91 37 98 29.9c7-7 11.5-15 14-20.3-1.3 6.2-4.2 15.9-11.3 23m0 26.3c7 7 10 16.6 11.2 22.8-2.5-5.2-6.9-13.2-13.9-20.1-6.9-6.9-14.9-11.4-20.1-13.9 6.1 1.2 15.7 4.1 22.8 11.2m1.5-1.5C95 50.3 85.7 47.1 79.3 45.7c6.4-1.4 15.7-4.5 22.9-11.6 11.7-11.7 12.6-29.5 12.7-30.2l.1-1.2-1.2.1c-.8 0-18.5.9-30.2 12.7C76.5 22.6 73.4 32 72 38.4c-1.4-6.4-4.5-15.7-11.6-22.9C48.5 3.7 30.8 2.8 30 2.8l-1.2-.1.1 1.2c0 .8.9 18.5 12.7 30.2 7.1 7.1 16.5 10.2 22.9 11.6-6.4 1.4-15.7 4.5-22.9 11.6C29.9 69.1 29 86.9 28.9 87.6l-.1 1.2 1.2-.1c.8 0 18.5-.9 30.2-12.7 7.1-7.1 10.2-16.5 11.6-22.9 1.4 6.4 4.5 15.7 11.6 22.9 11.7 11.7 29.5 12.6 30.2 12.7l1.2.1-.1-1.2c.1-.7-.8-18.5-12.5-30.2" fill="#97999b"/></svg>